<?xml version="1.0" encoding="UTF-8" standalone="no"?>
<!-- Created with Inkscape (http://www.inkscape.org/) -->

<svg
   width="256"
   height="256"
   viewBox="0 0 67.733334 67.733334"
   version="1.1"
   id="svg1"
   xmlns="http://www.w3.org/2000/svg"
   xmlns:svg="http://www.w3.org/2000/svg">
  <defs
     id="defs1" />
  <g
     id="g60"
     style="fill:#ffffff;fill-opacity:1;stroke:#0e0e43;stroke-width:6.2176;stroke-dasharray:none;stroke-opacity:1"
     transform="matrix(1.0000606,0,0,1.0000606,-5.3736738,-63.880929)">
    <g
       id="g1"
       transform="matrix(0.3457623,0,0,0.3457623,1.8096128,40.073954)"
       style="fill:#ffffff;fill-opacity:1;stroke:#0e0e43;stroke-width:17.9823;stroke-dasharray:none;stroke-opacity:1">
      <g
         id="g2"
         style="fill:#ffffff;fill-opacity:1;stroke:#0e0e43;stroke-width:1.4785;stroke-dasharray:none;stroke-opacity:1"
         transform="matrix(12.162505,0,0,12.162505,-32.462207,-452.96894)">
        <path
           id="path1"
           style="fill:#ffffff;fill-opacity:1;stroke:#0e0e43;stroke-width:1.4785;stroke-linecap:round;stroke-linejoin:round;stroke-miterlimit:9.1;stroke-dasharray:none;stroke-opacity:1;paint-order:fill markers stroke"
           d="m 11.646507,43.642549 c -4.038226,8.9e-4 -7.3116325,3.274297 -7.3125227,7.312523 -1.947e-4,4.038993 3.2735294,7.313597 7.3125227,7.314488 3.487073,-0.0084 6.483277,-2.47736 7.158181,-5.898508 -0.620978,1.570892 -1.854119,2.821688 -3.416025,3.464933 0.0015,0.277406 0.0039,0.532472 0.0039,0.726484 -0.739445,0 -1.37585,-0.10185 -1.92189,-0.271448 -0.146668,0.01695 -0.293894,0.02867 -0.441396,0.03514 -3.4356877,2.08e-4 -6.2209147,-2.785019 -6.2207066,-6.220707 -2.081e-4,-3.435688 2.7850189,-6.220915 6.2207066,-6.220707 0.192387,2.18e-4 0.38466,0.0094 0.576199,0.0274 -0.637785,-0.178134 -1.296807,-0.268831 -1.959001,-0.269605 z m -3.1385553,3.085838 c 0.1447941,0.443587 0.436407,0.880884 0.8274942,1.046718 -0.1090884,0.328801 -0.1096117,0.719225 -0.1096117,1.137282 0,0.90457 0.6427321,1.676019 1.5479578,1.983086 -0.329929,-0.04179 -0.632013,-0.123222 -0.8682918,-0.287054 -0.431935,0.07708 -0.6133052,0.557376 -0.5744781,1.118235 0.2769283,4.000144 2.8097509,3.741322 2.8324539,3.734783 -1.853097,-0.904141 -1.549482,-2.377876 -1.610382,-2.847445 0.07631,0.794735 0.926406,3.057084 4.098271,3.057084 0,-0.953411 0.0047,-3.40281 -0.304135,-4.157993 -0.09728,-0.294206 -0.3627,-1.081221 -0.686056,-1.169354 -0.262025,0.29403 -0.643893,0.449619 -1.095011,0.527045 0.867912,-0.322492 1.4773,-1.077475 1.4773,-1.958387 0,-0.418057 -5.29e-4,-0.808481 -0.109612,-1.137282 0.391087,-0.165834 0.682701,-0.603131 0.827494,-1.046718 -0.472651,-0.0073 -1.224795,0.166618 -1.866593,0.187028 -0.321367,-0.08366 -0.733857,-0.129693 -1.260165,-0.130256 -0.526307,5.76e-4 -0.938675,0.04659 -1.260042,0.130256 -0.6417973,-0.02041 -1.3939415,-0.194302 -1.8665933,-0.187028 z" />
      </g>
    </g>
  </g>
  <g
     id="g55"
     style="fill:#fff59b;fill-opacity:1"
     transform="matrix(4.2055905,0,0,4.2055905,-14.788898,-180.43362)">
    <path
       id="path55"
       style="fill:#fff59b;fill-opacity:1;stroke:none;stroke-width:1;stroke-linecap:round;stroke-linejoin:round;stroke-miterlimit:9.1;stroke-dasharray:none;paint-order:fill markers stroke"
       d="m 11.646484,43.642578 a 7.3141356,7.3141356 0 0 0 -7.3124996,7.3125 7.3141356,7.3141356 0 0 0 7.3124996,7.314453 7.3141356,7.3141356 0 0 0 7.158204,-5.898437 6.2203302,6.2203302 0 0 1 -3.416016,3.464844 c 0.0015,0.277406 0.0039,0.53255 0.0039,0.726562 -0.739445,0 -1.375835,-0.101886 -1.921875,-0.271484 a 6.2203302,6.2203302 0 0 1 -0.441406,0.03516 6.2203302,6.2203302 0 0 1 -6.2207032,-6.220703 6.2203302,6.2203302 0 0 1 6.2207032,-6.220703 6.2203302,6.2203302 0 0 1 0.576172,0.02734 7.3141356,7.3141356 0 0 0 -1.958985,-0.269531 z" />
  </g>
  <path
     id="path56"
     style="fill:#a9aefe;fill-opacity:1;stroke:none;stroke-width:1.34608;stroke-miterlimit:9.1;paint-order:fill markers stroke"
     d="m 42.66444,31.291474 c -1.802882,2.023105 -4.950139,2.492661 -8.5254,2.5028 -2.71816,-0.0077 -5.450476,-0.128227 -7.26956,-1.389551 -1.816542,0.324182 -2.579157,2.344033 -2.415866,4.702777 1.164647,16.822967 11.81672,15.734645 11.912198,15.707145 -7.793366,-3.802447 -6.516498,-10.00048 -6.772622,-11.975293 0.320928,3.34233 3.895926,12.856764 17.235494,12.856764 0,-4.009655 0.01992,-14.311035 -1.27908,-17.487024 -0.409124,-1.237312 -1.52526,-4.546963 -2.885164,-4.917618 z" />
  <rect
     style="fill:#f3edf7;fill-opacity:1;stroke-width:6.29839;stroke-linecap:square;stroke-linejoin:round;stroke-miterlimit:6.4"
     id="rect3"
     width="16.253635"
     height="10.520533"
     x="25.887611"
     y="19.681677" />
  <path
     id="path57"
     style="fill:#a9aefe;fill-opacity:1;stroke:none;stroke-width:3.76565;stroke-miterlimit:9.1;paint-order:fill markers stroke"
     d="m 20.992013,16.087004 c 0.608944,1.865545 1.835334,3.704314 3.480086,4.401745 -0.458781,1.382804 -0.460831,3.024949 -0.460831,4.783126 0,4.927895 4.533698,8.919413 10.130359,8.938559 5.596664,-0.01912 10.130367,-4.010667 10.130367,-8.938559 0,-1.758177 -0.0021,-3.400322 -0.460833,-4.783126 1.644753,-0.697431 2.871142,-2.5362 3.480084,-4.401745 -1.987776,-0.0305 -5.150908,0.700757 -7.850047,0.786595 -1.351539,-0.351845 -3.086137,-0.545868 -5.299571,-0.548233 -2.213431,0.0024 -3.948027,0.196367 -5.299568,0.548233 -2.699135,-0.08584 -5.862266,-0.817187 -7.850046,-0.786595 z m 6.777419,4.648053 c 0.55547,-0.01383 1.299779,0.06204 2.304161,0.246319 0.672198,0.123302 1.523536,0.452402 2.034019,0.754813 0.950807,0.563264 1.073595,1.207697 2.034015,1.207697 0.96042,0 1.083207,-0.644433 2.034018,-1.207697 0.510483,-0.302418 1.361822,-0.631511 2.034021,-0.754813 4.591459,-0.842328 3.821732,0.523962 3.821732,2.836505 0,2.387132 -1.935155,4.32229 -4.322291,4.32229 -0.76295,-0.0037 -1.511332,-0.20934 -2.169091,-0.595905 -0.01546,0.03375 -0.02887,0.06484 -0.04768,0.09535 l -0.969338,1.573189 c -0.105239,0.171222 -0.243797,0.257467 -0.381378,0.254251 -0.13758,0.0031 -0.276139,-0.08303 -0.381378,-0.254251 l -0.969338,-1.573189 c -0.01871,-0.0305 -0.03212,-0.06159 -0.04768,-0.09535 -0.657763,0.386585 -1.406142,0.592188 -2.169091,0.595905 -2.387137,0 -4.32229,-1.935158 -4.32229,-4.32229 0,-1.806673 -0.466271,-3.033173 1.517569,-3.082814 z" />
  <path
     id="path58"
     style="fill:none;stroke:#0e0e43;stroke-width:1.22052;stroke-linecap:round;stroke-miterlimit:9.1;stroke-dasharray:none;stroke-opacity:1;paint-order:fill markers stroke"
     d="M 32.3042,25.300596 A 1.9914438,1.9914438 0 0 1 30.579559,26.29632 1.9914438,1.9914438 0 0 1 28.854918,25.300596" />
  <path
     id="path59"
     style="fill:none;stroke:#0e0e43;stroke-width:1.22052;stroke-linecap:round;stroke-miterlimit:9.1;stroke-dasharray:none;stroke-opacity:1;paint-order:fill markers stroke"
     d="M 39.428334,25.300596 A 1.9914438,1.9914438 0 0 1 37.703696,26.29632 1.9914438,1.9914438 0 0 1 35.979053,25.300596" />
</svg>
