<svg xmlns="http://www.w3.org/2000/svg" width="724.635" height="724.635"><path fill="#359757" stroke="#359757" stroke-linecap="square" stroke-linejoin="round" stroke-width="74.755" d="m37.378 160.237 122.859-122.86h527.02v527.02l-122.86 122.86H37.378Z"/><path fill="#fff" stroke="#fff" stroke-linecap="round" stroke-linejoin="round" stroke-width="12.201" d="M323.051 96.412a268.74 268.74 0 0 0-3.51.542c-4.052 14.481-7.815 29.941-14.904 42.692a230.02 230.02 0 0 0-59.406 24.679c-14.036-3.974-27.647-12.214-40.766-19.562a268.788 268.788 0 0 0-60.035 60.16c7.376 13.105 15.645 26.698 19.648 40.726a230.02 230.02 0 0 0-24.554 59.458c-12.735 7.115-28.186 10.913-42.66 14.994a268.789 268.789 0 0 0 .09 84.992c14.48 4.05 29.941 7.814 42.691 14.903a230.02 230.02 0 0 0 24.68 59.406c-3.974 14.037-12.215 27.647-19.563 40.766a268.788 268.788 0 0 0 60.161 60.035c13.104-7.376 26.696-15.645 40.725-19.648a230.02 230.02 0 0 0 59.457 24.555c7.116 12.735 10.913 28.186 14.995 42.659a268.788 268.788 0 0 0 84.99-.09c4.052-14.482 7.817-29.941 14.906-42.691a230.02 230.02 0 0 0 59.405-24.68c14.037 3.974 33.069 17.638 46.188 24.986a268.788 268.788 0 0 0 60.035-60.161c-7.376-13.105-21.068-32.12-25.071-46.149a230.02 230.02 0 0 0 24.555-59.457c12.735-7.116 28.186-10.912 42.659-14.993a268.788 268.788 0 0 0-.089-84.993c-14.482-4.051-29.942-7.814-42.692-14.904a230.02 230.02 0 0 0-24.68-59.405c3.974-14.037 12.216-27.647 19.565-40.767a268.788 268.788 0 0 0-60.161-60.035c-13.105 7.376-26.698 15.645-40.726 19.649a230.02 230.02 0 0 0-59.458-24.555c-7.115-12.735-10.913-28.187-14.994-42.66a268.788 268.788 0 0 0-81.481-.452zm15.778 106.85c58.282-8.328 116.455 15.865 151.643 63.065 35.19 47.2 41.766 109.86 17.144 163.337l-41.728-22.688s-38.558 31.44-57.344 63.012l23.893 36.326a160.78 160.78 0 0 1-46.633 15.058c-87.854 12.99-169.6-47.708-182.573-135.564-12.974-87.855 47.74-169.59 135.598-182.546Z"/></svg>
